<svg xmlns="http://www.w3.org/2000/svg" version="1.1" xmlns:xlink="http://www.w3.org/1999/xlink" xmlns:svgjs="http://svgjs.dev/svgjs" width="1000" height="1012" viewBox="0 0 1000 1012"><g transform="matrix(1,0,0,1,0.8839374489238025,0.40971659919023296)"><svg viewBox="0 0 244 247" data-background-color="#ffffff" preserveAspectRatio="xMidYMid meet" height="1012" width="1000" xmlns="http://www.w3.org/2000/svg" xmlns:xlink="http://www.w3.org/1999/xlink"><g id="tight-bounds" transform="matrix(1,0,0,1,-0.21568064534523046,-0.09999999999999432)"><svg viewBox="0 0 244.43135999999996 247.2" height="247.2" width="244.43135999999996"><g><svg></svg></g><g><svg viewBox="0 0 244.43135999999996 247.2" height="247.2" width="244.43135999999996"><g transform="matrix(1,0,0,1,0,74.27713807385953)"><svg viewBox="0 0 244.43135999999996 98.64572385228094" height="98.64572385228094" width="244.43135999999996"><g><svg viewBox="0 0 244.43135999999996 98.64572385228094" height="98.64572385228094" width="244.43135999999996"><g><svg viewBox="0 0 244.43135999999996 98.64572385228094" height="98.64572385228094" width="244.43135999999996"><g><svg viewBox="0 0 244.43135999999996 98.64572385228094" height="98.64572385228094" width="244.43135999999996"><g><svg viewBox="0 0 244.43135999999996 98.64572385228094" height="98.64572385228094" width="244.43135999999996"><g><svg viewBox="0 0 244.43135999999996 98.64572385228094" height="98.64572385228094" width="244.43135999999996"><g transform="matrix(1,0,0,1,0,0)"><svg width="244.43135999999996" viewBox="1.4600000381469727 -40.15999984741211 101.13999938964844 40.81999969482422" height="98.64572385228094" data-palette-color="#000000"><path d="M14.45 0L1.71 0Q1.56-0.05 1.51-0.33 1.46-0.61 1.46-0.76L1.46-0.76Q1.46-0.88 1.54-1.15 1.61-1.42 1.71-1.46L1.71-1.46Q2.03-1.61 2.61-1.7 3.2-1.78 3.78-2.04 4.37-2.29 4.81-2.84 5.25-3.39 5.25-4.47L5.25-4.47 5.25-16.19Q5.25-16.77 4.93-17.1 4.61-17.43 4.13-17.6 3.64-17.77 3.08-17.88 2.51-17.99 2-18.14L2-18.14Q1.86-18.19 1.77-18.27 1.68-18.36 1.68-18.63L1.68-18.63Q1.68-18.75 1.76-18.87 1.83-18.99 2.05-19.12L2.05-19.12 10.13-22.92Q10.23-22.97 10.34-23.02 10.45-23.07 10.5-23.07L10.5-23.07Q10.91-23.07 10.91-22.49L10.91-22.49 10.91-4.47Q10.91-3.39 11.35-2.84 11.79-2.29 12.38-2.04 12.96-1.78 13.55-1.7 14.14-1.61 14.45-1.46L14.45-1.46Q14.55-1.42 14.62-1.15 14.7-0.88 14.7-0.76L14.7-0.76Q14.7-0.61 14.65-0.33 14.6-0.05 14.45 0L14.45 0ZM4.2-31.91L4.2-31.91Q4.2-33.47 5.13-34.4 6.05-35.33 7.62-35.33L7.62-35.33Q9.18-35.33 10.11-34.4 11.04-33.47 11.04-31.91L11.04-31.91Q11.04-30.35 10.11-29.43 9.18-28.52 7.62-28.52L7.62-28.52Q6.05-28.52 5.13-29.43 4.2-30.35 4.2-31.91ZM20.73-0.15L20.73-0.15Q20.51-0.15 20.33-0.02 20.16 0.1 20 0.26 19.85 0.42 19.7 0.54 19.55 0.66 19.36 0.66L19.36 0.66 18.48 0.66Q18.43 0.66 18.33-0.05 18.23-0.76 18.12-1.75 18.02-2.73 17.94-3.8 17.87-4.86 17.87-5.57L17.87-5.57Q17.87-5.96 18.15-6.07 18.43-6.18 18.75-6.18L18.75-6.18Q18.92-6.18 19.13-6.05 19.33-5.93 19.52-5.75 19.7-5.57 19.85-5.37 19.99-5.18 20.07-5.03L20.07-5.03Q20.48-4.13 20.9-3.39 21.31-2.66 21.85-2.15 22.39-1.64 23.12-1.35 23.85-1.07 24.88-1.07L24.88-1.07Q25.66-1.07 26.14-1.34 26.63-1.61 26.9-2.05 27.17-2.49 27.26-3.05 27.34-3.61 27.34-4.22L27.34-4.22Q27.34-5.44 26.61-6.29 25.88-7.13 24.79-7.86 23.7-8.59 22.42-9.35 21.14-10.11 20.05-11.11 18.97-12.11 18.23-13.49 17.5-14.87 17.5-16.89L17.5-16.89Q17.5-18.07 18.23-19.18 18.97-20.29 20.14-21.14 21.31-22 22.76-22.51 24.22-23.02 25.66-23.02L25.66-23.02Q26.41-23.02 27.18-22.89 27.95-22.75 28.6-22.58 29.25-22.41 29.7-22.24 30.15-22.07 30.27-22L30.27-22Q30.44-21.88 30.55-21.62 30.66-21.36 30.7-20.8 30.73-20.24 30.75-19.3 30.76-18.36 30.76-16.85L30.76-16.85Q30.76-16.43 30.45-16.25 30.15-16.06 29.86-16.06L29.86-16.06Q29.59-16.06 29.33-16.16 29.07-16.26 29-16.48L29-16.48Q28.71-17.24 28.34-18.01 27.98-18.77 27.5-19.4 27.02-20.02 26.39-20.4 25.75-20.78 24.92-20.78L24.92-20.78Q24.44-20.78 23.95-20.65 23.46-20.53 23.07-20.18 22.68-19.82 22.45-19.21 22.21-18.6 22.21-17.65L22.21-17.65Q22.21-16.82 22.98-16.11 23.75-15.41 24.9-14.69 26.05-13.96 27.4-13.13 28.76-12.3 29.9-11.23 31.05-10.16 31.82-8.75 32.59-7.35 32.59-5.44L32.59-5.44Q32.59-4.03 31.86-2.89 31.13-1.76 29.98-0.98 28.83-0.2 27.43 0.23 26.02 0.66 24.68 0.66L24.68 0.66Q24 0.66 23.31 0.54 22.63 0.42 22.07 0.26 21.51 0.1 21.14-0.02 20.77-0.15 20.73-0.15ZM38.11-5.18L38.11-18.82 36.27-18.82Q35.93-18.82 35.74-18.99 35.54-19.17 35.52-19.36L35.52-19.36Q35.52-19.48 35.57-19.63 35.62-19.78 35.69-19.82L35.69-19.82Q36.18-20.14 36.75-20.57 37.32-21 37.89-21.46 38.45-21.92 38.98-22.39 39.52-22.85 39.94-23.24L39.94-23.24Q40.18-23.51 40.61-24.05 41.04-24.58 41.58-25.11 42.13-25.63 42.77-26.04 43.4-26.44 44.06-26.44L44.06-26.44Q44.21-26.44 44.4-26.34 44.6-26.25 44.6-26.1L44.6-26.1Q44.6-25.93 44.51-25.57 44.43-25.22 44.31-24.78 44.18-24.34 44.04-23.85 43.89-23.36 43.77-22.9L43.77-22.9Q43.77-22.71 43.83-22.58 43.89-22.46 44.16-22.44L44.16-22.44 50.39-22.44Q50.78-22.44 50.92-22.3 51.07-22.17 51.14-21.95L51.14-21.95Q51.19-21.83 51.24-21.45 51.29-21.07 51.34-20.62 51.39-20.17 51.42-19.71 51.46-19.26 51.46-18.97L51.46-18.97Q51.46-18.82 51.26-18.82L51.26-18.82 43.92-18.82Q43.79-18.82 43.78-18.77 43.77-18.73 43.77-18.6L43.77-18.6 43.77-6.47Q43.77-5.69 43.96-5.1 44.16-4.52 44.47-4.13 44.77-3.74 45.16-3.54 45.55-3.34 45.94-3.34L45.94-3.34Q47.07-3.34 47.77-3.67 48.48-4 48.99-4.39 49.51-4.79 49.9-5.11 50.29-5.44 50.78-5.44L50.78-5.44Q51.12-5.44 51.18-5.18 51.24-4.91 51.24-4.76L51.24-4.76Q51.24-4.44 51.15-4.26 51.07-4.08 51.02-3.98L51.02-3.98Q51-3.93 50.75-3.56 50.51-3.2 50.09-2.69 49.68-2.17 49.08-1.59 48.48-1 47.75-0.5 47.02 0 46.15 0.33 45.28 0.66 44.33 0.66L44.33 0.66Q43.01 0.66 41.87 0.17 40.72-0.32 39.89-1.14 39.06-1.95 38.58-3 38.11-4.05 38.11-5.18L38.11-5.18ZM53.78-9.89L53.78-9.89Q53.78-12.74 54.58-15.15 55.39-17.55 56.9-19.31 58.42-21.07 60.6-22.05 62.79-23.02 65.57-23.02L65.57-23.02Q66.4-23.02 67.06-22.91 67.72-22.8 68.27-22.62 68.82-22.44 69.29-22.18 69.77-21.92 70.26-21.63L70.26-21.63Q70.82-21.34 71.54-20.58 72.26-19.82 72.89-18.82 73.53-17.82 73.97-16.69 74.41-15.55 74.41-14.5L74.41-14.5Q74.41-14.16 74.27-13.76 74.14-13.35 73.82-13.35L73.82-13.35 59.42-13.35Q59.17-13.35 59.09-12.92 59-12.48 59-11.84L59-11.84Q59-9.69 59.62-8.02 60.25-6.35 61.3-5.19 62.35-4.03 63.71-3.43 65.08-2.83 66.59-2.83L66.59-2.83Q67.55-2.83 68.43-3.09 69.3-3.34 70.11-3.76 70.92-4.17 71.62-4.69 72.33-5.2 72.97-5.71L72.97-5.71Q73.11-5.76 73.16-5.76L73.16-5.76Q73.23-5.76 73.36-5.64L73.36-5.64Q73.58-5.44 73.8-5.19 74.02-4.93 74.14-4.76L74.14-4.76Q74.21-4.69 74.21-4.61L74.21-4.61Q74.21-4.54 74.11-4.44L74.11-4.44Q73.31-3.49 72.14-2.58 70.96-1.66 69.63-0.94 68.3-0.22 66.91 0.22 65.52 0.66 64.27 0.66L64.27 0.66Q61.76 0.66 59.81-0.26 57.85-1.17 56.51-2.66 55.17-4.15 54.47-6.04 53.78-7.93 53.78-9.89ZM60.12-15.23L68.11-15.23Q68.74-15.23 68.74-15.8L68.74-15.8Q68.74-16.75 68.44-17.59 68.13-18.43 67.57-19.08 67.01-19.73 66.22-20.09 65.42-20.46 64.45-20.46L64.45-20.46Q63.27-20.46 62.39-19.96 61.52-19.46 60.91-18.75 60.3-18.04 59.99-17.29 59.68-16.53 59.68-15.99L59.68-15.99Q59.68-15.58 59.81-15.41 59.93-15.23 60.12-15.23L60.12-15.23ZM89.98-36.21L98.06-40.01Q98.16-40.06 98.27-40.11 98.38-40.16 98.43-40.16L98.43-40.16Q98.84-40.16 98.84-39.58L98.84-39.58 98.84-5.59Q98.84-4.52 99.39-4.05 99.94-3.59 101.04-3.59L101.04-3.59 102.46-3.69Q102.55-3.69 102.58-3.55 102.6-3.42 102.6-3.27L102.6-3.27Q102.6-3.22 102.54-3.14 102.48-3.05 102.24-2.95L102.24-2.95 93.89 0.51Q93.84 0.54 93.64 0.6 93.45 0.66 93.42 0.66L93.42 0.66Q93.25 0.66 93.22 0.45 93.18 0.24 93.18 0.05L93.18 0.05 93.18-1.64Q93.18-1.88 93.01-1.88L93.01-1.88Q92.93-1.88 92.79-1.81L92.79-1.81Q91.93-1.32 91.18-0.87 90.42-0.42 89.65-0.07 88.88 0.27 88.04 0.46 87.2 0.66 86.17 0.66L86.17 0.66Q83.97 0.66 82.22-0.24 80.46-1.15 79.24-2.66 78.02-4.17 77.36-6.13 76.7-8.08 76.7-10.21L76.7-10.21Q76.7-12.77 77.71-14.97 78.73-17.16 80.42-18.77 82.12-20.39 84.37-21.3 86.61-22.22 89.08-22.22L89.08-22.22Q89.74-22.22 90.22-22.09 90.71-21.97 91.13-21.84 91.54-21.7 91.96-21.58 92.37-21.46 92.89-21.46L92.89-21.46Q92.96-21.46 93.07-21.51 93.18-21.56 93.18-21.78L93.18-21.78 93.18-33.28Q93.18-33.86 92.86-34.19 92.54-34.52 92.06-34.69 91.57-34.86 91.01-34.97 90.44-35.08 89.93-35.23L89.93-35.23Q89.78-35.28 89.7-35.36 89.61-35.45 89.61-35.72L89.61-35.72Q89.61-35.84 89.69-35.96 89.76-36.08 89.98-36.21L89.98-36.21ZM82.24-11.3L82.24-11.3Q82.24-9.55 82.64-7.92 83.05-6.3 83.89-5.07 84.73-3.83 86.03-3.1 87.32-2.37 89.08-2.37L89.08-2.37Q89.35-2.37 90.03-2.51 90.71-2.66 91.41-2.89 92.1-3.13 92.64-3.44 93.18-3.76 93.18-4.13L93.18-4.13 93.18-16.26Q93.18-17.94 91.97-18.99 90.76-20.04 88.52-20.04L88.52-20.04Q86.88-20.04 85.7-19.27 84.51-18.51 83.74-17.26 82.97-16.02 82.61-14.45 82.24-12.89 82.24-11.3Z" opacity="1" transform="matrix(1,0,0,1,0,0)" fill="#000000" class="undefined-text-0" data-fill-palette-color="primary" id="text-0"></path></svg></g></svg></g></svg></g></svg></g><g></g></svg></g></svg></g></svg></g><path d="M0 68.277L0 1 244.431 1 244.431 68.277 235.535 68.277 235.535 9.896 8.896 9.896 8.896 68.277 0 68.277M0 178.923L0 246.2 244.431 246.2 244.431 178.923 235.535 178.923 235.535 237.304 8.896 237.304 8.896 178.923 0 178.923" fill="#000000" stroke="transparent" data-fill-palette-color="primary"></path></svg></g><defs></defs></svg><rect width="244.43135999999996" height="247.2" fill="none" stroke="none" visibility="hidden"></rect></g></svg></g></svg>